HIERARCHY
ROOT Hips
{
	OFFSET 0.000000 89.005402 0.000000
	CHANNELS 6 Xposition Yposition Zposition Xrotation Yrotation Zrotation
	JOINT Spine
	{
		OFFSET 0.116900 10.681000 0.373400
		CHANNELS 3 Xrotation Yrotation Zrotation
		JOINT Spine1
		{
			OFFSET 0.000000 13.840401 0.053500
			CHANNELS 3 Xrotation Yrotation Zrotation
			JOINT Spine2
			{
				OFFSET 0.000000 14.712700 -0.366200
				CHANNELS 3 Xrotation Yrotation Zrotation
				JOINT Neck
				{
					OFFSET 0.000000 35.415497 -3.314200
					CHANNELS 3 Xrotation Yrotation Zrotation
					JOINT Head
					{
						OFFSET 0.000000 16.899200 1.218300
						CHANNELS 3 Xrotation Yrotation Zrotation
						JOINT HeadTop_End
						{
							OFFSET 0.000000 22.206207 2.192500
							CHANNELS 3 Xrotation Yrotation Zrotation
							End Site
							{
								OFFSET 0.000000 22.314178 0.000000
							}
						}
					}
				}
				JOINT LeftShoulder
				{
					OFFSET 12.896400 26.716293 -4.548400
					CHANNELS 3 Xrotation Yrotation Zrotation
					JOINT LeftArm
					{
						OFFSET 19.027000 -4.857010 -1.718400
						CHANNELS 3 Xrotation Yrotation Zrotation
						JOINT LeftForeArm
						{
							OFFSET 24.179897 0.000000 0.000000
							CHANNELS 3 Xrotation Yrotation Zrotation
							JOINT LeftHand
							{
								OFFSET 27.156403 0.000000 0.000000
								CHANNELS 3 Xrotation Yrotation Zrotation
								JOINT LeftHandIndex1
								{
									OFFSET 16.441200 0.000000 0.000000
									CHANNELS 3 Xrotation Yrotation Zrotation
									JOINT LeftHandIndex2
									{
										OFFSET 4.821899 0.000000 0.000000
										CHANNELS 3 Xrotation Yrotation Zrotation
										JOINT LeftHandIndex3
										{
											OFFSET 6.386497 0.000000 0.000000
											CHANNELS 3 Xrotation Yrotation Zrotation
											JOINT LeftHandIndex4
											{
												OFFSET 5.188988 0.000000 0.000000
												CHANNELS 3 Xrotation Yrotation Zrotation
												End Site
												{
													OFFSET -0.178703 5.185913 0.000177
												}
											}
										}
									}
								}
								JOINT LeftHandThumb1
								{
									OFFSET 6.534897 -5.032593 5.900300
									CHANNELS 3 Xrotation Yrotation Zrotation
									JOINT LeftHandThumb2
									{
										OFFSET 3.818176 -2.204422 2.204423
										CHANNELS 3 Xrotation Yrotation Zrotation
										JOINT LeftHandThumb3
										{
											OFFSET 3.252098 -1.877594 1.877601
											CHANNELS 3 Xrotation Yrotation Zrotation
											JOINT LeftHandThumb4
											{
												OFFSET 5.251778 -3.032120 3.032117
												CHANNELS 3 Xrotation Yrotation Zrotation
												End Site
												{
													OFFSET 0.000023 6.780014 0.000000
												}
											}
										}
									}
								}
							}
						}
					}
				}
				JOINT RightShoulder
				{
					OFFSET -12.896300 26.716293 -4.548400
					CHANNELS 3 Xrotation Yrotation Zrotation
					JOINT RightArm
					{
						OFFSET -19.027000 -4.857010 -1.718400
						CHANNELS 3 Xrotation Yrotation Zrotation
						JOINT RightForeArm
						{
							OFFSET -24.179897 0.000000 0.000000
							CHANNELS 3 Xrotation Yrotation Zrotation
							JOINT RightHand
							{
								OFFSET -27.156403 0.000000 0.000000
								CHANNELS 3 Xrotation Yrotation Zrotation
								JOINT RightHandThumb1
								{
									OFFSET -6.591202 -4.852203 5.988100
									CHANNELS 3 Xrotation Yrotation Zrotation
									JOINT RightHandThumb2
									{
										OFFSET -3.818176 -2.204422 2.204423
										CHANNELS 3 Xrotation Yrotation Zrotation
										JOINT RightHandThumb3
										{
											OFFSET -3.252098 -1.877594 1.877601
											CHANNELS 3 Xrotation Yrotation Zrotation
											JOINT RightHandThumb4
											{
												OFFSET -5.251778 -3.032120 3.032117
												CHANNELS 3 Xrotation Yrotation Zrotation
												End Site
												{
													OFFSET -0.000023 6.780014 0.000000
												}
											}
										}
									}
								}
								JOINT RightHandIndex1
								{
									OFFSET -16.029404 0.000000 0.000000
									CHANNELS 3 Xrotation Yrotation Zrotation
									JOINT RightHandIndex2
									{
										OFFSET -5.213303 0.000000 0.000000
										CHANNELS 3 Xrotation Yrotation Zrotation
										JOINT RightHandIndex3
										{
											OFFSET -6.386528 0.000000 0.000000
											CHANNELS 3 Xrotation Yrotation Zrotation
											JOINT RightHandIndex4
											{
												OFFSET -5.189026 0.000000 0.000000
												CHANNELS 3 Xrotation Yrotation Zrotation
												End Site
												{
													OFFSET 0.236702 5.183624 0.001972
												}
											}
										}
									}
								}
							}
						}
					}
				}
			}
		}
	}
	JOINT LeftUpLeg
	{
		OFFSET 14.073000 -7.904099 -1.463000
		CHANNELS 3 Xrotation Yrotation Zrotation
		JOINT LeftLeg
		{
			OFFSET -0.109806 -34.073280 4.093200
			CHANNELS 3 Xrotation Yrotation Zrotation
			JOINT LeftFoot
			{
				OFFSET 0.109806 -29.899420 -6.319000
				CHANNELS 3 Xrotation Yrotation Zrotation
				JOINT LeftToeBase
				{
					OFFSET 1.551100 -14.988700 20.535801
					CHANNELS 3 Xrotation Yrotation Zrotation
					JOINT LeftToe_End
					{
						OFFSET 0.221200 0.570800 13.248301
						CHANNELS 3 Xrotation Yrotation Zrotation
						End Site
						{
							OFFSET 0.000000 13.262435 0.000000
						}
					}
				}
			}
		}
	}
	JOINT RightUpLeg
	{
		OFFSET -13.839300 -7.904099 -1.463000
		CHANNELS 3 Xrotation Yrotation Zrotation
		JOINT RightLeg
		{
			OFFSET 0.109694 -34.073219 4.093300
			CHANNELS 3 Xrotation Yrotation Zrotation
			JOINT RightFoot
			{
				OFFSET -0.109694 -29.899384 -6.319200
				CHANNELS 3 Xrotation Yrotation Zrotation
				JOINT RightToeBase
				{
					OFFSET -1.551100 -14.988700 20.535801
					CHANNELS 3 Xrotation Yrotation Zrotation
					JOINT RightToe_End
					{
						OFFSET -0.221200 0.570900 13.248299
						CHANNELS 3 Xrotation Yrotation Zrotation
						End Site
						{
							OFFSET 0.000000 13.262440 0.000000
						}
					}
				}
			}
		}
	}
}
MOTION
Frames: 5
Frame Time: 0.033333
-0.050908 77.470108 0.686493 11.746390 -18.917483 0.384026 2.395419 -0.592057 1.806177 7.470204 -1.173137 1.477451 7.480777 -1.056942 1.506683 -5.830246 3.350058 -2.388616 -22.634028 14.538032 -1.221873 0.000000 0.000000 0.000000 0.579097 5.090350 -11.395042 -5.933628 -21.658883 -54.752104 0.000248 -84.234517 0.000283 21.301922 0.884259 27.092591 -11.214693 -7.851935 -13.475846 0.126569 2.748773 -20.406560 1.630030 4.971278 -40.072129 0.000001 -0.000000 -0.000000 0.626557 5.419146 2.939359 4.330098 -0.661770 -3.639587 7.567952 41.114798 -0.574123 -0.000003 -0.000000 0.000002 1.680633 4.496093 10.406886 -15.941291 17.871543 63.693003 0.001916 88.262368 -0.001970 24.903382 7.639913 1.474375 -7.743923 22.753127 -16.040353 6.934120 -44.978821 -9.137369 -12.903919 21.733612 7.991441 0.000001 0.000000 -0.000001 0.371979 -3.723765 -20.941326 1.864483 -5.469511 44.606234 -0.103862 -1.103889 8.178444 -0.000002 0.000003 -0.000000 -44.562401 6.392687 28.376188 45.852371 5.580564 1.014482 -8.682437 3.376377 -21.759273 -0.453317 -0.000000 -0.000004 0.000000 -0.000000 -0.000000 -35.271179 -9.808986 -19.568425 43.123595 -7.006651 -0.768500 -12.635192 -4.085324 20.388738 -0.979681 0.006319 -0.370453 0.000000 0.000002 -0.000000 
-0.002689 77.436493 0.754068 11.739998 -18.992712 0.392880 2.392801 -0.588255 1.822426 7.454788 -1.159107 1.496668 7.465555 -1.042746 1.523242 -5.802171 3.340587 -2.372650 -22.619677 14.519261 -1.240237 -0.000000 0.000000 -0.000000 0.579411 5.113226 -11.430904 -5.871659 -21.645450 -54.787669 0.000609 -84.313371 0.000654 21.198271 0.859138 26.890653 -11.214695 -7.851936 -13.475845 0.126572 2.748774 -20.406563 1.630030 4.971281 -40.072126 -0.000000 -0.000005 0.000001 0.626553 5.419146 2.939357 4.330094 -0.661770 -3.639586 7.567953 41.114798 -0.574121 0.000001 -0.000001 0.000002 1.691088 4.515793 10.464325 -15.988245 17.726655 63.740370 0.010614 88.349351 -0.010697 24.714396 7.552274 1.458280 -7.743929 22.753126 -16.040353 6.934116 -44.978821 -9.137370 -12.903915 21.733609 7.991436 0.000001 0.000000 0.000000 0.371979 -3.723764 -20.941328 1.864481 -5.469514 44.606241 -0.103859 -1.103888 8.178442 -0.000000 -0.000000 -0.000000 -44.551316 6.431546 28.374549 46.031742 5.568269 0.988025 -8.874475 3.397853 -21.657594 -0.483636 0.000004 0.000005 -0.000000 0.000000 -0.000000 -35.273317 -9.725439 -19.573418 43.163186 -7.026925 -0.856300 -12.609059 -4.104262 20.499944 -1.015835 0.006167 -0.348361 -0.000000 -0.000000 0.000000 
0.068135 77.396057 0.835857 11.746926 -19.104722 0.403211 2.386435 -0.585384 1.840096 7.436539 -1.147583 1.523497 7.447472 -1.030478 1.548060 -5.780692 3.329907 -2.360272 -22.600223 14.491034 -1.267197 0.000000 0.000000 -0.000000 0.579899 5.134780 -11.468160 -5.807023 -21.649183 -54.785494 0.000310 -84.344176 0.000383 21.168119 0.818329 26.714953 -11.214697 -7.851936 -13.475850 0.126573 2.748771 -20.406560 1.630030 4.971279 -40.072126 -0.000002 -0.000001 0.000000 0.626553 5.419145 2.939358 4.330100 -0.661770 -3.639587 7.567949 41.114802 -0.574120 0.000002 0.000002 -0.000000 1.701444 4.540309 10.515989 -16.056429 17.605661 63.785962 0.002777 88.405959 -0.002830 24.628025 7.491741 1.441328 -7.743925 22.753129 -16.040354 6.934119 -44.978821 -9.137367 -12.903915 21.733609 7.991439 0.000000 -0.000000 -0.000002 0.371980 -3.723765 -20.941329 1.864488 -5.469507 44.606241 -0.103861 -1.103887 8.178443 0.000002 0.000002 0.000001 -44.547727 6.477447 28.366257 46.256701 5.582779 0.966294 -9.113527 3.424837 -21.522102 -0.522567 0.000001 0.000001 -0.000000 0.000001 0.000000 -35.315602 -9.696438 -19.642168 43.189888 -6.931110 -0.890265 -12.578911 -4.114947 20.572350 -1.032658 0.006159 -0.341659 0.000000 -0.000000 0.000000 
0.157582 77.358757 0.924332 11.768527 -19.251733 0.406810 2.374415 -0.586387 1.855228 7.414891 -1.146716 1.553975 7.425890 -1.028177 1.578481 -5.768124 3.320246 -2.350337 -22.576106 14.462248 -1.291983 0.000000 -0.000000 -0.000000 0.580404 5.150108 -11.498519 -5.734723 -21.660454 -54.742272 0.000322 -84.326082 0.000380 21.182986 0.783235 26.613072 -11.214701 -7.851934 -13.475845 0.126571 2.748772 -20.406563 1.630030 4.971278 -40.072126 -0.000001 -0.000000 -0.000000 0.626556 5.419145 2.939360 4.330098 -0.661770 -3.639587 7.567949 41.114802 -0.574117 -0.000001 -0.000001 0.000003 1.710016 4.561405 10.556389 -16.149803 17.544299 63.840269 0.002468 88.388522 -0.002507 24.704337 7.482819 1.435086 -7.743929 22.753126 -16.040353 6.934117 -44.978817 -9.137368 -12.903917 21.733616 7.991438 -0.000001 -0.000001 -0.000002 0.371975 -3.723764 -20.941326 1.864483 -5.469510 44.606237 -0.103856 -1.103891 8.178442 0.000001 0.000001 -0.000000 -44.551271 6.523795 28.364159 46.505508 5.632807 0.952054 -9.374824 3.457366 -21.397145 -0.563915 -0.000011 0.000001 -0.000000 0.000001 -0.000000 -35.375623 -9.698125 -19.730093 43.169340 -6.776010 -0.892842 -12.516739 -4.115787 20.620261 -1.037236 0.006217 -0.343980 0.000000 -0.000003 0.000000 
0.266224 77.329857 1.015005 11.784228 -19.406738 0.397650 2.355704 -0.593842 1.864476 7.389542 -1.163441 1.583813 7.400427 -1.042774 1.611212 -5.765008 3.314714 -2.343417 -22.548054 14.444139 -1.303152 -0.000000 0.000000 0.000000 0.580723 5.156155 -11.515591 -5.655431 -21.668796 -54.663052 0.000511 -84.266878 0.000540 21.192410 0.791883 26.629627 -11.214692 -7.851937 -13.475845 0.126570 2.748770 -20.406561 1.630030 4.971277 -40.072129 -0.000001 -0.000003 -0.000000 0.626556 5.419146 2.939358 4.330098 -0.661770 -3.639588 7.567955 41.114802 -0.574122 0.000001 -0.000004 0.000003 1.714791 4.571096 10.577961 -16.263034 17.578137 63.909732 0.002493 88.262464 -0.002573 24.971047 7.541291 1.449063 -7.743925 22.753127 -16.040353 6.934121 -44.978824 -9.137367 -12.903919 21.733612 7.991439 0.000001 -0.000000 -0.000001 0.371979 -3.723764 -20.941328 1.864489 -5.469509 44.606237 -0.103858 -1.103894 8.178443 -0.000000 -0.000001 0.000001 -44.548276 6.560214 28.355962 46.768436 5.716511 0.945766 -9.642827 3.495327 -21.311527 -0.602190 0.000008 0.000003 -0.000000 -0.000002 0.000000 -35.418663 -9.715762 -19.819645 43.093610 -6.609573 -0.893413 -12.410247 -4.106915 20.662593 -1.048066 0.006236 -0.340905 0.000000 0.000002 -0.000000 
